<svg xmlns="http://www.w3.org/2000/svg" viewBox=".19 0 511.61 512"><path d="M33.284 218.955c-71.269 109.258-5.234 240.384-5.234 240.384L31.245 512h26.008v-52.661C26.064 381.87 47.571 314.391 63.01 284.84l13.951-15.894c20.991 19.224 43.802 34.868 66.746 47.333l24.401-264.911C115.479 81.357 58.04 125.629 33.284 218.955zM478.716 218.955c71.269 109.258 5.234 240.384 5.234 240.384L480.755 512h-26.008v-52.661c31.189-77.469 9.682-144.948-5.757-174.499l-13.951-15.894c-20.991 19.224-43.802 34.868-66.746 47.333L343.892 51.368c52.629 29.989 110.069 74.261 134.824 167.587z"/><path d="M76.962 268.944c-6.666-6.146-13.188-12.636-19.454-19.523 0 0-42.221 105.678-.255 209.918-41.965-104.24 19.709-190.395 19.709-190.395zM435.038 268.944c6.666-6.146 13.188-12.636 19.454-19.523 0 0 42.221 105.678.255 209.918 41.967-104.24-19.709-190.395-19.709-190.395zM168.109 51.368c-55.359 84.68-53.428 181.071-24.401 264.911 40.075 21.772 80.559 33.814 112.291 38.063l22.738-177.171L256 0c-19.681 17.656-52.712 31.323-87.891 51.368z"/><path d="M343.892 51.368C308.713 31.323 275.682 17.656 256 0v354.342c31.733-4.249 72.216-16.291 112.291-38.063 29.029-83.84 30.96-180.23-24.399-264.911z"/></svg>