<svg xmlns="http://www.w3.org/2000/svg" version="1.1" id="prefix___x32_" xml:space="preserve" viewBox="0 40.7 512 430.59"><style>.prefix__st0{fill:#000}</style><path class="prefix__st0" d="M289.375 40.703c-40.906 0-76.25 23.781-93 58.266-16.75-34.484-52.109-58.266-93.016-58.266C46.266 40.703 0 86.969 0 144.063c0 57.078 46.266 103.328 103.359 103.328h186.016c57.094 0 103.359-46.25 103.359-103.328 0-57.094-46.265-103.36-103.359-103.36zM103.359 183.141c-21.594 0-39.094-17.516-39.094-39.078 0-21.594 17.5-39.094 39.094-39.094 21.563 0 39.063 17.5 39.063 39.094 0 21.562-17.5 39.078-39.063 39.078zm186.016 0c-21.578 0-39.063-17.516-39.063-39.078 0-21.594 17.484-39.094 39.063-39.094 21.594 0 39.094 17.5 39.094 39.094 0 21.562-17.5 39.078-39.094 39.078zM332.125 271H53.828c-11.094 0-20.063 8.969-20.063 20.047v160.188c0 11.078 8.969 20.063 20.063 20.063h278.297c11.094 0 20.063-8.984 20.063-20.063V291.047c0-11.078-8.969-20.047-20.063-20.047zM504.344 306.688a20.18 20.18 0 00-17.156-3.719l-97.844 23.844a20.07 20.07 0 00-15.328 19.5v47.484c0 9.25 6.328 17.297 15.328 19.484l97.844 23.859a20.176 20.176 0 0017.156-3.719A20.116 20.116 0 00512 417.64v-95.188a20.106 20.106 0 00-7.656-15.764z"/></svg>